<svg width="182" height="33" viewBox="0 0 182 33" fill="none" xmlns="http://www.w3.org/2000/svg">
<path d="M50.04 24.4C49.9067 24.4 49.7933 24.3533 49.7 24.26C49.6067 24.1667 49.56 24.0533 49.56 23.92V10.9C49.56 10.7533 49.6 10.6333 49.68 10.54C49.7733 10.4467 49.8933 10.4 50.04 10.4H55.84C57.4 10.4 58.56 10.7467 59.32 11.44C60.0933 12.12 60.48 13.0533 60.48 14.24C60.48 14.9333 60.3067 15.5267 59.96 16.02C59.6267 16.5 59.2333 16.8467 58.78 17.06C59.34 17.3133 59.8067 17.7267 60.18 18.3C60.5667 18.8733 60.76 19.5267 60.76 20.26C60.76 21.5 60.34 22.5 59.5 23.26C58.6733 24.02 57.5067 24.4 56 24.4H50.04ZM55.48 16.14C56.1733 16.14 56.7 15.9733 57.06 15.64C57.42 15.3067 57.6 14.86 57.6 14.3C57.6 13.7267 57.42 13.2867 57.06 12.98C56.7 12.66 56.1733 12.5 55.48 12.5H52.34V16.14H55.48ZM55.68 22.28C56.3733 22.28 56.9133 22.0933 57.3 21.72C57.6867 21.3333 57.88 20.8467 57.88 20.26C57.88 19.66 57.6867 19.1733 57.3 18.8C56.9133 18.4133 56.3733 18.22 55.68 18.22H52.34V22.28H55.68ZM72.5109 14C72.6309 14 72.7376 14.0467 72.8309 14.14C72.9243 14.22 72.9709 14.32 72.9709 14.44V23.92C72.9709 24.0533 72.9243 24.1667 72.8309 24.26C72.7376 24.3533 72.6243 24.4 72.4909 24.4H70.8309C70.6976 24.4 70.5843 24.3533 70.4909 24.26C70.3976 24.1667 70.3509 24.0533 70.3509 23.92V17.5L65.5509 24.08C65.4309 24.2933 65.2509 24.4 65.0109 24.4H63.4909C63.3709 24.4 63.2643 24.36 63.1709 24.28C63.0776 24.1867 63.0309 24.0733 63.0309 23.94V14.48C63.0309 14.3467 63.0776 14.2333 63.1709 14.14C63.2643 14.0467 63.3776 14 63.5109 14H65.1709C65.3176 14 65.4309 14.0467 65.5109 14.14C65.6043 14.22 65.6509 14.3333 65.6509 14.48V20.92L70.4509 14.32C70.5976 14.1067 70.7776 14 70.9909 14H72.5109ZM75.0919 26.6C74.9585 26.6 74.8452 26.5533 74.7519 26.46C74.6585 26.38 74.6119 26.2667 74.6119 26.12V22.76C74.6119 22.6267 74.6585 22.5133 74.7519 22.42C74.8452 22.3267 74.9585 22.28 75.0919 22.28H75.2519C75.7719 22.28 76.1519 21.8667 76.3919 21.04C76.6319 20.2133 76.7519 18.9267 76.7519 17.18V14.48C76.7519 14.3333 76.7985 14.22 76.8919 14.14C76.9852 14.0467 77.0985 14 77.2319 14H84.3519C84.4985 14 84.6119 14.0467 84.6919 14.14C84.7852 14.22 84.8319 14.3333 84.8319 14.48V22.26H85.7319C85.8785 22.26 85.9919 22.3067 86.0719 22.4C86.1652 22.48 86.2119 22.5933 86.2119 22.74V26.12C86.2119 26.2667 86.1652 26.38 86.0719 26.46C85.9919 26.5533 85.8785 26.6 85.7319 26.6H84.0919C83.9452 26.6 83.8252 26.5533 83.7319 26.46C83.6385 26.3667 83.5919 26.2533 83.5919 26.12V24.4H77.2319V26.12C77.2319 26.2667 77.1852 26.38 77.0919 26.46C77.0119 26.5533 76.8985 26.6 76.7519 26.6H75.0919ZM82.2319 22.26V16.12H79.2719V17.46C79.2719 19.7533 78.9585 21.36 78.3319 22.28L82.2319 22.26ZM92.5305 24.6C91.0505 24.6 89.8705 24.1733 88.9905 23.32C88.1238 22.4533 87.6638 21.24 87.6105 19.68L87.5905 19.18L87.6105 18.68C87.6771 17.16 88.1438 15.9667 89.0105 15.1C89.8905 14.2333 91.0638 13.8 92.5305 13.8C94.1038 13.8 95.3171 14.28 96.1705 15.24C97.0371 16.2 97.4705 17.48 97.4705 19.08V19.5C97.4705 19.6333 97.4238 19.7467 97.3305 19.84C97.2371 19.9333 97.1171 19.98 96.9705 19.98H90.3305V20.14C90.3571 20.8733 90.5571 21.4933 90.9305 22C91.3171 22.4933 91.8438 22.74 92.5105 22.74C93.2971 22.74 93.9305 22.4333 94.4105 21.82C94.5305 21.6733 94.6238 21.58 94.6905 21.54C94.7705 21.5 94.8838 21.48 95.0305 21.48H96.7505C96.8705 21.48 96.9705 21.52 97.0505 21.6C97.1438 21.6667 97.1905 21.7533 97.1905 21.86C97.1905 22.18 96.9971 22.56 96.6105 23C96.2371 23.4267 95.6971 23.8 94.9905 24.12C94.2838 24.44 93.4638 24.6 92.5305 24.6ZM94.7505 18.3V18.24C94.7505 17.4533 94.5505 16.82 94.1505 16.34C93.7638 15.86 93.2238 15.62 92.5305 15.62C91.8371 15.62 91.2971 15.86 90.9105 16.34C90.5238 16.82 90.3305 17.4533 90.3305 18.24V18.3H94.7505ZM104.193 24.6C102.633 24.6 101.427 24.2 100.573 23.4C99.7201 22.5867 99.2601 21.48 99.1934 20.08L99.1734 19.2L99.1934 18.32C99.2601 16.9333 99.7268 15.8333 100.593 15.02C101.46 14.2067 102.66 13.8 104.193 13.8C105.727 13.8 106.927 14.2067 107.793 15.02C108.66 15.8333 109.127 16.9333 109.193 18.32C109.207 18.48 109.213 18.7733 109.213 19.2C109.213 19.6267 109.207 19.92 109.193 20.08C109.127 21.48 108.667 22.5867 107.813 23.4C106.96 24.2 105.753 24.6 104.193 24.6ZM104.193 22.62C104.9 22.62 105.447 22.4 105.833 21.96C106.22 21.5067 106.433 20.8467 106.473 19.98C106.487 19.8467 106.493 19.5867 106.493 19.2C106.493 18.8133 106.487 18.5533 106.473 18.42C106.433 17.5533 106.22 16.9 105.833 16.46C105.447 16.0067 104.9 15.78 104.193 15.78C103.487 15.78 102.94 16.0067 102.553 16.46C102.167 16.9 101.953 17.5533 101.913 18.42L101.893 19.2L101.913 19.98C101.953 20.8467 102.167 21.5067 102.553 21.96C102.94 22.4 103.487 22.62 104.193 22.62ZM115.929 24.6C114.463 24.6 113.289 24.1933 112.409 23.38C111.543 22.5667 111.083 21.44 111.029 20L111.009 19.2L111.029 18.4C111.083 16.96 111.543 15.8333 112.409 15.02C113.289 14.2067 114.463 13.8 115.929 13.8C116.969 13.8 117.849 13.9867 118.569 14.36C119.303 14.7333 119.843 15.1933 120.189 15.74C120.549 16.2733 120.743 16.78 120.769 17.26C120.783 17.3933 120.736 17.5067 120.629 17.6C120.536 17.6933 120.423 17.74 120.289 17.74H118.529C118.396 17.74 118.289 17.7133 118.209 17.66C118.143 17.5933 118.076 17.4867 118.009 17.34C117.809 16.82 117.543 16.4467 117.209 16.22C116.889 15.9933 116.476 15.88 115.969 15.88C115.289 15.88 114.756 16.1 114.369 16.54C113.983 16.9667 113.776 17.62 113.749 18.5L113.729 19.24L113.749 19.9C113.803 21.6467 114.543 22.52 115.969 22.52C116.489 22.52 116.909 22.4067 117.229 22.18C117.549 21.9533 117.809 21.58 118.009 21.06C118.076 20.9133 118.143 20.8133 118.209 20.76C118.289 20.6933 118.396 20.66 118.529 20.66H120.289C120.423 20.66 120.536 20.7067 120.629 20.8C120.736 20.8933 120.783 21.0067 120.769 21.14C120.743 21.6067 120.556 22.1067 120.209 22.64C119.863 23.1733 119.329 23.6333 118.609 24.02C117.889 24.4067 116.996 24.6 115.929 24.6ZM127.335 24.6C125.855 24.6 124.675 24.1733 123.795 23.32C122.928 22.4533 122.468 21.24 122.415 19.68L122.395 19.18L122.415 18.68C122.482 17.16 122.948 15.9667 123.815 15.1C124.695 14.2333 125.868 13.8 127.335 13.8C128.908 13.8 130.122 14.28 130.975 15.24C131.842 16.2 132.275 17.48 132.275 19.08V19.5C132.275 19.6333 132.228 19.7467 132.135 19.84C132.042 19.9333 131.922 19.98 131.775 19.98H125.135V20.14C125.162 20.8733 125.362 21.4933 125.735 22C126.122 22.4933 126.648 22.74 127.315 22.74C128.102 22.74 128.735 22.4333 129.215 21.82C129.335 21.6733 129.428 21.58 129.495 21.54C129.575 21.5 129.688 21.48 129.835 21.48H131.555C131.675 21.48 131.775 21.52 131.855 21.6C131.948 21.6667 131.995 21.7533 131.995 21.86C131.995 22.18 131.802 22.56 131.415 23C131.042 23.4267 130.502 23.8 129.795 24.12C129.088 24.44 128.268 24.6 127.335 24.6ZM129.555 18.3V18.24C129.555 17.4533 129.355 16.82 128.955 16.34C128.568 15.86 128.028 15.62 127.335 15.62C126.642 15.62 126.102 15.86 125.715 16.34C125.328 16.82 125.135 17.4533 125.135 18.24V18.3H129.555ZM134.898 28.2C134.765 28.2 134.651 28.1533 134.558 28.06C134.465 27.98 134.418 27.8667 134.418 27.72V14.48C134.418 14.3333 134.465 14.22 134.558 14.14C134.651 14.0467 134.765 14 134.898 14H136.478C136.625 14 136.738 14.0467 136.818 14.14C136.911 14.22 136.958 14.3333 136.958 14.48V15.28C137.705 14.2933 138.771 13.8 140.158 13.8C141.505 13.8 142.538 14.2267 143.258 15.08C143.978 15.92 144.365 17.06 144.418 18.5C144.431 18.66 144.438 18.8933 144.438 19.2C144.438 19.52 144.431 19.76 144.418 19.92C144.365 21.32 143.978 22.4533 143.258 23.32C142.538 24.1733 141.505 24.6 140.158 24.6C138.811 24.6 137.785 24.1267 137.078 23.18V27.72C137.078 27.8667 137.031 27.98 136.938 28.06C136.858 28.1533 136.745 28.2 136.598 28.2H134.898ZM139.418 22.46C140.858 22.46 141.625 21.5733 141.718 19.8C141.731 19.6667 141.738 19.4667 141.738 19.2C141.738 18.9333 141.731 18.7333 141.718 18.6C141.625 16.8267 140.858 15.94 139.418 15.94C138.645 15.94 138.071 16.1867 137.698 16.68C137.325 17.1733 137.118 17.78 137.078 18.5L137.058 19.26L137.078 20.04C137.105 20.7067 137.311 21.28 137.698 21.76C138.098 22.2267 138.671 22.46 139.418 22.46ZM147.163 24.4C147.03 24.4 146.917 24.3533 146.823 24.26C146.73 24.1667 146.683 24.0533 146.683 23.92V14.48C146.683 14.3467 146.73 14.2333 146.823 14.14C146.917 14.0467 147.03 14 147.163 14H151.603C152.977 14 154.01 14.2533 154.703 14.76C155.41 15.2667 155.763 15.9733 155.763 16.88C155.763 17.4133 155.663 17.84 155.463 18.16C155.263 18.4667 154.963 18.74 154.563 18.98C155.03 19.1933 155.39 19.5133 155.643 19.94C155.91 20.3667 156.043 20.8467 156.043 21.38C156.043 22.3533 155.683 23.1 154.963 23.62C154.243 24.14 153.197 24.4 151.823 24.4H147.163ZM151.563 18.24C152.097 18.24 152.517 18.1333 152.823 17.92C153.13 17.6933 153.283 17.3667 153.283 16.94C153.283 16.5267 153.137 16.2333 152.843 16.06C152.55 15.8867 152.123 15.8 151.563 15.8H149.243V18.24H151.563ZM151.643 22.6C152.19 22.6 152.617 22.5 152.923 22.3C153.243 22.0867 153.403 21.7733 153.403 21.36C153.403 20.92 153.257 20.6 152.963 20.4C152.683 20.2 152.243 20.1 151.643 20.1H149.243V22.6H151.643ZM167.823 14C167.943 14 168.05 14.0467 168.143 14.14C168.237 14.22 168.283 14.32 168.283 14.44V23.92C168.283 24.0533 168.237 24.1667 168.143 24.26C168.05 24.3533 167.937 24.4 167.803 24.4H166.143C166.01 24.4 165.897 24.3533 165.803 24.26C165.71 24.1667 165.663 24.0533 165.663 23.92V17.5L160.863 24.08C160.743 24.2933 160.563 24.4 160.323 24.4H158.803C158.683 24.4 158.577 24.36 158.483 24.28C158.39 24.1867 158.343 24.0733 158.343 23.94V14.48C158.343 14.3467 158.39 14.2333 158.483 14.14C158.577 14.0467 158.69 14 158.823 14H160.483C160.63 14 160.743 14.0467 160.823 14.14C160.917 14.22 160.963 14.3333 160.963 14.48V20.92L165.763 14.32C165.91 14.1067 166.09 14 166.303 14H167.823ZM175.304 24.6C173.838 24.6 172.664 24.1933 171.784 23.38C170.918 22.5667 170.458 21.44 170.404 20L170.384 19.2L170.404 18.4C170.458 16.96 170.918 15.8333 171.784 15.02C172.664 14.2067 173.838 13.8 175.304 13.8C176.344 13.8 177.224 13.9867 177.944 14.36C178.678 14.7333 179.218 15.1933 179.564 15.74C179.924 16.2733 180.118 16.78 180.144 17.26C180.158 17.3933 180.111 17.5067 180.004 17.6C179.911 17.6933 179.798 17.74 179.664 17.74H177.904C177.771 17.74 177.664 17.7133 177.584 17.66C177.518 17.5933 177.451 17.4867 177.384 17.34C177.184 16.82 176.918 16.4467 176.584 16.22C176.264 15.9933 175.851 15.88 175.344 15.88C174.664 15.88 174.131 16.1 173.744 16.54C173.358 16.9667 173.151 17.62 173.124 18.5L173.104 19.24L173.124 19.9C173.178 21.6467 173.918 22.52 175.344 22.52C175.864 22.52 176.284 22.4067 176.604 22.18C176.924 21.9533 177.184 21.58 177.384 21.06C177.451 20.9133 177.518 20.8133 177.584 20.76C177.664 20.6933 177.771 20.66 177.904 20.66H179.664C179.798 20.66 179.911 20.7067 180.004 20.8C180.111 20.8933 180.158 21.0067 180.144 21.14C180.118 21.6067 179.931 22.1067 179.584 22.64C179.238 23.1733 178.704 23.6333 177.984 24.02C177.264 24.4067 176.371 24.6 175.304 24.6Z" fill="#333333"/>
<path fill-rule="evenodd" clip-rule="evenodd" d="M36.0218 18.1188L11.8079 31.4C13.76 32.0468 15.8708 32.4 18.0736 32.4C27.3311 32.4 34.9629 26.1614 36.0218 18.1188ZM8 29.6523C3.17469 26.7436 0 21.8041 0 16.2C0 10.5959 3.17469 5.65644 8 2.74767V29.6523ZM10.8156 1.3592C13.037 0.485122 15.4921 0 18.0736 0C27.6944 0 35.5595 6.7379 36.1158 15.2363L10.8156 1.3592Z" fill="#E5261E"/>
</svg>
